<svg version="1.1" id="Layer_1" xmlns="http://www.w3.org/2000/svg" xmlns:xlink="http://www.w3.org/1999/xlink" x="0px" y="0px" viewBox="0 0 232.5 48" style="enable-background:new 0 0 232.5 48;" xml:space="preserve">
 <style type="text/css">
  .st0{fill:#181818;}
 </style>
 <g>
  <path class="st0" d="M113.5,0h-41C63,0,58.7,5.9,57.8,11.6V0H35c-3.2,0-4.7,1-6.2,3.2l-6.2,9.1h90.9L113.5,0L113.5,0z M0,48h16.3
		l20.4-33l-14.6-1.4L0,48z M129.3,0h-13.4v12.3h13.4V0z M214.6,19.2l-42.1-2.5c0,6.4,4.2,10.8,11.4,11.3l29.9,2.3
		c2.3,0.2,3.7,0.8,3.7,2.7c0,1.8-1.6,2.5-5,2.5h-40.8V48h41.7c13.1,0,18.9-4.6,18.9-15.1C232.5,23.5,227.3,20,214.6,19.2L214.6,19.2
		z">
  </path>
  <path class="st0" d="M172,16.7l-13.2-0.8v14.1c0,4.4-2.2,5.8-9.9,5.8h-10.6c-6.3,0-9-1.8-9-5.8V14.6l-13.4-1v17.6h-0.3
		c-0.8-5.1-2.7-11-15.5-11.9l-42-2.8c0,6.4,4.6,10.3,11.8,11l29.3,3c2.3,0.2,4,0.9,4,2.8c0,2.1-1.7,2.3-4.4,2.3H57.6V16.4l-13.4-0.9
		V48h54.7c12.2,0,16.1-6.3,16.7-11.6h0.3c1.5,8.4,8.8,11.6,21.2,11.6h13.6c14.5,0,21.3-4.4,21.3-14.8L172,16.7L172,16.7L172,16.7z
		 M231.5,12.3V0h-45.1c-9.4,0-13.6,5.8-14.4,11.4c0,0.1,0,0.1,0,0.2V0h-13.2v12.3H231.5z">
  </path>
 </g>
</svg>